<svg xmlns="http://www.w3.org/2000/svg" viewBox="0 0 360 80" width="360" height="80" fill="none" role="img" aria-label="Caravel">
  <g transform="translate(14 14)">
    <path d="M26 4 V50 M8 16 V46 M44 16 V46" stroke="#1E76FE" stroke-width="1.4" stroke-linecap="round" opacity="0.6"/>
    <path d="M26 2 h11 l-3 2.5 l3 2.5 h-11 Z" fill="#1E76FE"/>
    <path d="M26 6 C37 13 37 32 26 39 Z" fill="#1E76FE" opacity="0.9"/>
    <path d="M26 6 C15 13 15 32 26 39 Z" fill="#1E76FE" opacity="0.6"/>
    <path d="M8 18 C16 22 16 38 8 42 Z" fill="#1E76FE" opacity="0.75"/>
    <path d="M44 18 C36 22 36 38 44 42 Z" fill="#1E76FE" opacity="0.75"/>
    <path d="M0 50 h52 l-8 12 a6 6 0 0 1 -5 2 H13 a6 6 0 0 1 -5 -2 Z" fill="#1E76FE"/>
  </g>
  <text x="82" y="53" font-family="Georgia, 'Times New Roman', serif" font-size="40" letter-spacing="2" fill="#0f2a52" font-weight="500">Caravel</text>
</svg>
